HIERARCHY
ROOT Hips
{
  OFFSET 55.6608 55.1057 14.0176
  CHANNELS 6 Xposition Yposition Zposition Zrotation Xrotation Yrotation
  JOINT spine
  {
    OFFSET 0 8.13249 0.467659
    CHANNELS 3 Zrotation Xrotation Yrotation
    JOINT spine1
    {
      OFFSET 0 10.3498 0
      CHANNELS 3 Zrotation Xrotation Yrotation
      JOINT spine2
      {
        OFFSET 0 9.91699 0
        CHANNELS 3 Zrotation Xrotation Yrotation
        JOINT Neck
        {
          OFFSET 0 25.461 1.2139
          CHANNELS 3 Zrotation Xrotation Yrotation
          JOINT Head
          {
            OFFSET 0 7.69245 0
            CHANNELS 3 Zrotation Xrotation Yrotation
            End Site
            {
              OFFSET 0 18.62 -6.14063
            }
          }
        }
        JOINT RightShoulder
        {
          OFFSET -4.17575 10.7096 -0.581445
          CHANNELS 3 Zrotation Xrotation Yrotation
          JOINT RightArm
          {
            OFFSET 0 14.0466 0
            CHANNELS 3 Zrotation Xrotation Yrotation
            JOINT RightArmRoll
            {
              OFFSET 0 7.09099 0
              CHANNELS 3 Zrotation Xrotation Yrotation
              JOINT RightForeArm
              {
                OFFSET 0 20.6535 0
                CHANNELS 3 Zrotation Xrotation Yrotation
                JOINT RightForeArmRoll
                {
                  OFFSET 0 7.95718 0
                  CHANNELS 3 Zrotation Xrotation Yrotation
                  JOINT RightHand
                  {
                    OFFSET 0 15.9683 0
                    CHANNELS 3 Zrotation Xrotation Yrotation
                    End Site
                    {
                      OFFSET 0 0 0
                    }
                  }
                }
              }
            }
          }
        }
        JOINT LeftShoulder
        {
          OFFSET 4.17575 10.7096 -0.581445
          CHANNELS 3 Zrotation Xrotation Yrotation
          JOINT LeftArm
          {
            OFFSET 0 14.0466 0
            CHANNELS 3 Zrotation Xrotation Yrotation
            JOINT LeftArmRoll
            {
              OFFSET 0 7.09099 0
              CHANNELS 3 Zrotation Xrotation Yrotation
              JOINT LeftForeArm
              {
                OFFSET 0 20.6535 0
                CHANNELS 3 Zrotation Xrotation Yrotation
                JOINT LeftForeArmRoll
                {
                  OFFSET 0 7.95718 0
                  CHANNELS 3 Zrotation Xrotation Yrotation
                  JOINT LeftHand
                  {
                    OFFSET 0 15.9683 0
                    CHANNELS 3 Zrotation Xrotation Yrotation
                    End Site
                    {
                      OFFSET 0 0 0
                    }
                  }
                }
              }
            }
          }
        }
      }
    }
  }
  JOINT RightUpLeg
  {
    OFFSET -7.20834 -1.32182 -1.10884
    CHANNELS 3 Zrotation Xrotation Yrotation
    JOINT RightUpLegRoll
    {
      OFFSET 0 18.7238 0
      CHANNELS 3 Zrotation Xrotation Yrotation
      JOINT RightLeg
      {
        OFFSET 0 -23.1866 0
        CHANNELS 3 Zrotation Xrotation Yrotation
        JOINT RightLegRoll
        {
          OFFSET 0 23.2624 0
          CHANNELS 3 Zrotation Xrotation Yrotation
          JOINT RightFoot
          {
            OFFSET 0 19.3621 0
            CHANNELS 3 Zrotation Xrotation Yrotation
            JOINT RightToeBase
            {
              OFFSET 0 16.1857 0
              CHANNELS 3 Zrotation Xrotation Yrotation
              End Site
              {
                OFFSET 0.00686052 7.83863 -0.903522
              }
            }
          }
        }
      }
    }
  }
  JOINT LeftUpLeg
  {
    OFFSET 7.20834 -1.32182 -1.10884
    CHANNELS 3 Zrotation Xrotation Yrotation
    JOINT LeftUpLegRoll
    {
      OFFSET 0 18.7239 0
      CHANNELS 3 Zrotation Xrotation Yrotation
      JOINT LeftLeg
      {
        OFFSET 0 23.1865 0
        CHANNELS 3 Zrotation Xrotation Yrotation
        JOINT LeftLegRoll
        {
          OFFSET 0 23.4775 0
          CHANNELS 3 Zrotation Xrotation Yrotation
          JOINT LeftFoot
          {
            OFFSET 0 19.147 0
            CHANNELS 3 Zrotation Xrotation Yrotation
            JOINT LeftToeBase
            {
              OFFSET 0 16.1857 0
              CHANNELS 3 Zrotation Xrotation Yrotation
              End Site
              {
                OFFSET -0.0307459 7.83862 -0.903522
              }
            }
          }
        }
      }
    }
  }
}
MOTION
Frames: 11
Frame Time: 0.00208333
55.2022 61.9742 23.4248 1.9618 17.762 -2.51385 0.968781 2.94215 0.0257472 1.95559 9.88531 -0.127064 1.96357 11.5298 -0.160763 -6.61718 5.07155 -4.02985 0.160736 18.0578 -5.5329 44.0297 -10.1611 -6.29211 133.192 34.0658 -38.5647 4.67877e-007 -1.9582e-006 -2.96753e-006 23.5594 68.528 -19.8276 -1.99794e-006 -1.87314e-006 -3.00657 8.02997 -4.95139 0.697631 -57.1035 -4.66782 2.77318 -120.605 34.4139 28.6536 -3.81114e-006 4.79298e-006 -5.05181e-006 -7.45172 58.5958 4.88768 1.1285e-005 1.24613e-006 3.00666 -8.0291 -4.95145 -0.697677 52.8646 78.8149 129.674 180 7.01591e-015 179.135 -178.114 86.3323 174.503 -3.65703e-006 4.08716e-006 1.90383 -22.4631 70.6117 22.1083 8.13649 25.2327 -3.48774 -60.3316 79.1612 -124.546 4.5067e-006 -1.99009e-005 -1.17272 26.2692 -88.6069 28.9504 -2.53651e-006 6.0105e-006 -2.415 25.7889 73.8168 -26.2894 -8.13512 25.2327 3.48221 
55.1648 61.8674 23.3699 1.96595 17.6301 -2.50705 0.970839 2.94339 0.0266267 1.96014 9.8878 -0.125422 1.96811 11.5323 -0.159194 -6.62738 5.12675 -4.03258 0.171401 18.0592 -5.54147 44.0355 -10.1752 -6.30384 133.206 34.0913 -38.5681 4.67877e-007 -1.9582e-006 -2.96753e-006 23.5567 68.5459 -19.8355 -1.99794e-006 -1.87314e-006 -3.00657 8.02997 -4.95139 0.697631 -57.0988 -4.65162 2.76251 -120.609 34.4545 28.7137 -3.81114e-006 4.79298e-006 -5.05181e-006 -7.44695 58.5768 4.87617 1.1285e-005 1.24613e-006 3.00666 -8.0291 -4.95145 -0.697677 52.7646 78.8006 129.762 180 7.01591e-015 179.135 -177.511 86.4055 173.922 -3.65703e-006 4.08716e-006 1.9076 -22.3691 70.5403 22.0273 8.13649 25.2327 -3.48774 -60.1769 79.1697 -124.703 4.5067e-006 -1.99009e-005 -1.17584 28.9649 -88.6677 31.62 -2.53651e-006 6.0105e-006 -2.41848 25.6831 73.7553 -26.1893 -8.13512 25.2327 3.48221 
55.1768 61.779 23.2973 1.96958 17.4957 -2.50076 0.9728 2.94521 0.0273763 1.9644 9.89143 -0.124064 1.97236 11.536 -0.157905 -6.63602 5.17928 -4.03548 0.181543 18.0623 -5.54973 44.0439 -10.1886 -6.31493 133.218 34.1187 -38.5729 4.67877e-007 -1.9582e-006 -2.96753e-006 23.5549 68.5619 -19.8433 -1.99794e-006 -1.87314e-006 -3.00657 8.02997 -4.95139 0.697631 -57.0944 -4.63577 2.75208 -120.613 34.4962 28.7701 -3.81114e-006 4.79298e-006 -5.05181e-006 -7.44371 58.5566 4.86606 1.1285e-005 1.24613e-006 3.00666 -8.0291 -4.95145 -0.697677 52.6837 78.7894 129.832 180 7.01591e-015 179.134 -176.888 86.4766 173.322 -3.65703e-006 4.08716e-006 1.91131 -22.2767 70.4693 21.9476 8.13649 25.2327 -3.48774 -60.0451 79.1792 -124.836 4.5067e-006 -1.99009e-005 -1.17893 31.8377 -88.7231 34.4671 -2.53651e-006 6.0105e-006 -2.42181 25.5775 73.6931 -26.0889 -8.13512 25.2327 3.48221 
55.2355 61.6848 23.2287 1.97264 17.3586 -2.49516 0.974629 2.94771 0.027974 1.96826 9.89644 -0.123041 1.97622 11.541 -0.156943 -6.64285 5.22835 -4.03851 0.191015 18.0675 -5.55752 44.0551 -10.201 -6.32521 133.23 34.1482 -38.5794 4.67877e-007 -1.9582e-006 -2.96753e-006 23.5544 68.576 -19.8513 -1.99794e-006 -1.87314e-006 -3.00657 8.02997 -4.95139 0.697631 -57.09 -4.62069 2.74215 -120.616 34.5393 28.8225 -3.81114e-006 4.79298e-006 -5.05181e-006 -7.44231 58.5354 4.85772 1.1285e-005 1.24613e-006 3.00666 -8.0291 -4.95145 -0.697677 52.624 78.7817 129.881 180 7.01591e-015 179.134 -176.247 86.5454 172.703 -3.65703e-006 4.08716e-006 1.915 -22.1863 70.399 21.8691 8.13649 25.2327 -3.48774 -59.9391 79.1898 -124.944 4.5067e-006 -1.99009e-005 -1.18198 34.8721 -88.7728 37.4762 -2.53651e-006 6.0105e-006 -2.42498 25.4723 73.6301 -25.9883 -8.13512 25.2327 3.48221 
55.2258 61.5931 23.1627 1.97505 17.2186 -2.49044 0.976291 2.95101 0.0283974 1.97162 9.90304 -0.122399 1.97959 11.5476 -0.156357 -6.64762 5.27316 -4.04161 0.199673 18.0754 -5.5647 44.0696 -10.2122 -6.3345 133.241 34.1801 -38.5878 4.67877e-007 -1.9582e-006 -2.96753e-006 23.5557 68.5883 -19.8599 -1.99794e-006 -1.87314e-006 -3.00657 8.02997 -4.95139 0.697631 -57.0855 -4.60681 2.73296 -120.62 34.5841 28.8703 -3.81114e-006 4.79298e-006 -5.05181e-006 -7.44306 58.5133 4.8515 1.1285e-005 1.24613e-006 3.00666 -8.0291 -4.95145 -0.697677 52.5873 78.7776 129.908 180 7.01591e-015 179.134 -175.589 86.6119 172.067 -3.65703e-006 4.08716e-006 1.91867 -22.0983 70.3293 21.7922 8.13649 25.2327 -3.48774 -59.8617 79.2014 -125.024 4.5067e-006 -1.99009e-005 -1.18501 38.0443 -88.8164 40.6236 -2.53651e-006 6.0105e-006 -2.42798 25.3676 73.5664 -25.8874 -8.13512 25.2327 3.48221 
55.289 61.4733 23.0843 1.97676 17.0754 -2.48678 0.977749 2.95521 0.0286246 1.97441 9.91144 -0.122189 1.98238 11.556 -0.156192 -6.65006 5.3129 -4.04476 0.207374 18.0864 -5.57113 44.0875 -10.2221 -6.34265 133.25 34.2148 -38.5983 4.67877e-007 -1.9582e-006 -2.96753e-006 23.559 68.5989 -19.8693 -1.99794e-006 -1.87314e-006 -3.00657 8.02997 -4.95139 0.697631 -57.0805 -4.59454 2.72477 -120.626 34.6307 28.913 -3.81114e-006 4.79298e-006 -5.05181e-006 -7.44627 58.4904 4.84778 1.1285e-005 1.24613e-006 3.00666 -8.0291 -4.95145 -0.697677 52.5757 78.7775 129.912 180 7.01591e-015 179.133 -174.915 86.6758 171.416 -3.65703e-006 4.08716e-006 1.92234 -22.0131 70.2604 21.7169 8.13649 25.2327 -3.48774 -59.816 79.2138 -125.072 4.5067e-006 -1.99009e-005 -1.18801 41.3196 -88.8537 43.8747 -2.53651e-006 6.0105e-006 -2.43083 25.2638 73.5018 -25.7863 -8.13512 25.2327 3.48221 
55.2897 61.3878 23.0206 1.97838 16.9288 -2.48434 0.978955 2.96024 0.0286593 1.97646 9.92149 -0.122365 1.98444 11.566 -0.156403 -6.65146 5.34898 -4.04794 0.215296 18.1 -5.57724 44.1064 -10.2308 -6.34986 133.261 34.2515 -38.6117 4.67877e-007 -1.9582e-006 -2.96753e-006 23.5646 68.6077 -19.8798 -1.99794e-006 -1.87314e-006 -3.00657 8.02997 -4.95139 0.697631 -57.0752 -4.58257 2.71673 -120.63 34.6784 28.95 -3.81114e-006 4.79298e-006 -5.05181e-006 -7.45142 58.4676 4.84621 1.1285e-005 1.24613e-006 3.00666 -8.0291 -4.95145 -0.697677 52.5857 78.7812 129.895 180 7.0159e-015 179.132 -174.214 86.738 170.737 -3.65703e-006 4.08716e-006 1.92605 -21.93 70.1922 21.6429 8.13649 25.2327 -3.48774 -59.8004 79.2269 -125.09 4.5067e-006 -1.99009e-005 -1.19102 44.6816 -88.8851 47.2131 -2.53651e-006 6.0105e-006 -2.43354 25.1601 73.436 -25.6844 -8.13512 25.2327 3.48221 
55.2799 61.3028 22.9551 1.98043 16.7787 -2.48305 0.979913 2.96591 0.0285301 1.97778 9.93285 -0.122839 1.98577 11.5774 -0.156897 -6.65302 5.38334 -4.05123 0.224473 18.1151 -5.5835 44.1245 -10.2387 -6.35648 133.275 34.2893 -38.6284 4.67877e-007 -1.9582e-006 -2.96753e-006 23.5724 68.6145 -19.8912 -1.99794e-006 -1.87314e-006 -3.00657 8.02997 -4.95139 0.697631 -57.0698 -4.56946 2.70794 -120.633 34.7263 28.9817 -3.81114e-006 4.79298e-006 -5.05181e-006 -7.45778 58.4453 4.84615 1.1285e-005 1.24613e-006 3.00666 -8.0291 -4.95145 -0.697677 52.6123 78.788 129.862 180 7.0159e-015 179.13 -173.475 86.7988 170.022 -3.65703e-006 4.08716e-006 1.92981 -21.8479 70.1243 21.5698 8.13649 25.2327 -3.48774 -59.8104 79.2405 -125.084 4.5067e-006 -1.99009e-005 -1.19403 48.1221 -88.911 50.6306 -2.53651e-006 6.0105e-006 -2.43616 25.0559 73.3687 -25.5812 -8.13512 25.2327 3.48221 
55.3055 61.2063 22.8889 1.9827 16.6254 -2.4827 0.980669 2.97219 0.0282518 1.97851 9.9454 -0.123592 1.98651 11.5899 -0.157661 -6.65443 5.41601 -4.05464 0.234541 18.1316 -5.58985 44.1424 -10.2461 -6.36256 133.291 34.3284 -38.6477 4.67877e-007 -1.9582e-006 -2.96753e-006 23.5819 68.6194 -19.9032 -1.99794e-006 -1.87314e-006 -3.00657 8.02997 -4.95139 0.697631 -57.0645 -4.55541 2.69857 -120.633 34.7746 29.0086 -3.81114e-006 4.79298e-006 -5.05181e-006 -7.46533 58.4232 4.84745 1.1285e-005 1.24613e-006 3.00666 -8.0291 -4.95145 -0.697677 52.6554 78.7979 129.812 180 7.0159e-015 179.129 -172.701 86.858 169.271 -3.65703e-006 4.08716e-006 1.93358 -21.7667 70.0568 21.4977 8.13649 25.2327 -3.48774 -59.8448 79.255 -125.054 4.5067e-006 -1.99009e-005 -1.19706 51.6085 -88.9316 54.0946 -2.53651e-006 6.0105e-006 -2.43867 24.9513 73.3002 -25.4769 -8.13512 25.2327 3.48221 
55.3283 61.13 22.8221 1.98498 16.4692 -2.48308 0.981268 2.97902 0.0278389 1.97876 9.95905 -0.124606 1.98677 11.6036 -0.158679 -6.65537 5.44701 -4.05821 0.245135 18.1494 -5.59622 44.1609 -10.2528 -6.36812 133.308 34.3688 -38.6692 4.67877e-007 -1.9582e-006 -2.96753e-006 23.5927 68.6223 -19.9154 -1.99794e-006 -1.87314e-006 -3.00657 8.02997 -4.95139 0.697631 -57.0595 -4.54066 2.68876 -120.632 34.8234 29.0313 -3.81114e-006 4.79298e-006 -5.05181e-006 -7.47404 58.4009 4.84996 1.1285e-005 1.24613e-006 3.00666 -8.0291 -4.95145 -0.697677 52.7151 78.8108 129.745 180 7.0159e-015 179.128 -171.894 86.9155 168.487 -3.65703e-006 4.08716e-006 1.93735 -21.6865 69.9897 21.4266 8.13649 25.2327 -3.48774 -59.9023 79.2703 -125.001 4.5067e-006 -1.99009e-005 -1.20007 55.1044 -88.9469 57.5684 -2.53651e-006 6.0105e-006 -2.44106 24.8466 73.2306 -25.3721 -8.13512 25.2327 3.48221 
55.3447 61.037 22.757 1.98705 16.3104 -2.484 0.981756 2.98634 0.0273061 1.97866 9.97369 -0.125864 1.98668 11.6182 -0.159934 -6.65552 5.47638 -4.06196 0.25589 18.1684 -5.60257 44.1806 -10.2589 -6.37321 133.326 34.4106 -38.6925 4.67877e-007 -1.9582e-006 -2.96753e-006 23.6045 68.6233 -19.9274 -1.99794e-006 -1.87314e-006 -3.00657 8.02997 -4.95139 0.697631 -57.0549 -4.52541 2.67866 -120.63 34.8729 29.0503 -3.81114e-006 4.79298e-006 -5.05181e-006 -7.48388 58.378 4.85355 1.1285e-005 1.24613e-006 3.00666 -8.0291 -4.95145 -0.697677 52.7913 78.8267 129.662 180 7.01589e-015 179.126 -171.058 86.9711 167.676 -3.65703e-006 4.08716e-006 1.94109 -21.6072 69.9228 21.3563 8.13649 25.2327 -3.48774 -59.9813 79.2868 -124.926 4.5067e-006 -1.99009e-005 -1.20307 58.5737 -88.9571 61.016 -2.53651e-006 6.0105e-006 -2.44332 24.7419 73.16 -25.2668 -8.13512 25.2327 3.48221 
